<?xml version="1.0" standalone="no"?>
 <!DOCTYPE svg PUBLIC "-//W3C//DTD SVG 1.1//EN" 
 "http://www.w3.org/Graphics/SVG/1.1/DTD/svg11.dtd"> 
<svg
  xmlns:svg="http://www.w3.org/2000/svg"
  xmlns="http://www.w3.org/2000/svg"
  xmlns:xlink="http://www.w3.org/1999/xlink"
  version="1.1"
  width="210.0072mm" height="297.0022mm" viewBox="0.0000 0.0000 210.0072 297.0022">
<title>SVG Image created as v1-Блок питания.svg date 2023/12/16 22:55:14 </title>
  <desc>Image generated by Eeschema-SVG </desc>
<g style="fill:#000000; fill-opacity:1.0000;stroke:#000000; stroke-opacity:1.0000;
stroke-linecap:round; stroke-linejoin:round;"
 transform="translate(0 0) scale(1 1)">
</g>
<g style="fill:#000000; fill-opacity:0.0; 
stroke:#000000; stroke-width:0.1524; stroke-opacity:1; 
stroke-linecap:round; stroke-linejoin:round;">
</g>
<g style="fill:#000000; fill-opacity:0.0; 
stroke:#000000; stroke-width:0.1588; stroke-opacity:1; 
stroke-linecap:round; stroke-linejoin:round;">
</g>
<g style="fill:#000000; fill-opacity:0.0; 
stroke:#000000; stroke-width:0.1524; stroke-opacity:1; 
stroke-linecap:round; stroke-linejoin:round;">
</g>
<g style="fill:#000000; fill-opacity:0.0; 
stroke:#000000; stroke-width:0.1588; stroke-opacity:1; 
stroke-linecap:round; stroke-linejoin:round;">
</g>
<g style="fill:#000000; fill-opacity:0.0; 
stroke:#000000; stroke-width:0.1524; stroke-opacity:1; 
stroke-linecap:round; stroke-linejoin:round;">
<g >
</g>
<g style="fill:#840000; fill-opacity:0.0; 
stroke:#840000; stroke-width:0.1524; stroke-opacity:1; 
stroke-linecap:round; stroke-linejoin:round;">
<path style="fill:#840000; fill-opacity:0.0; 
stroke:#840000; stroke-width:0.1524; stroke-opacity:1; 
stroke-linecap:round; stroke-linejoin:round;fill:none"
d="M 111.7600,132.0800
112.1664,132.0800
" /> 
<path style="fill:#840000; fill-opacity:0.0; 
stroke:#840000; stroke-width:0.1524; stroke-opacity:1; 
stroke-linecap:round; stroke-linejoin:round;fill:none"
d="M 111.7600,129.5400
112.1664,129.5400
" /> 
</g>
<g style="fill:#840000; fill-opacity:1.0000; 
stroke:#840000; stroke-width:0.1524; stroke-opacity:1; 
stroke-linecap:round; stroke-linejoin:round;">
<rect x="112.166400" y="131.953000" width="0.863600" height="0.254000" rx="0.000000" />
<rect x="112.166400" y="129.413000" width="0.863600" height="0.254000" rx="0.000000" />
</g>
<g style="fill:#840000; fill-opacity:0.0; 
stroke:#840000; stroke-width:0.1524; stroke-opacity:1; 
stroke-linecap:round; stroke-linejoin:round;">
<path d="M111.7600 129.5400
L107.9500 129.5400
" />
<text x="109.8550" y="129.2860"
textLength="1.3365" font-size="1.6933" lengthAdjust="spacingAndGlyphs"
text-anchor="middle" opacity="0">1</text>
<g class="stroked-text"><desc>1</desc>
<path d="M110.2179 129.1305
L109.4922 129.1305
" />
<path d="M109.8550 129.1305
L109.8550 127.8605
" />
<path d="M109.8550 127.8605
L109.7341 128.0420
" />
<path d="M109.7341 128.0420
L109.6131 128.1629
" />
<path d="M109.6131 128.1629
L109.4922 128.2234
" />
</g><path d="M111.7600 132.0800
L107.9500 132.0800
" />
<text x="109.8550" y="131.8260"
textLength="1.3365" font-size="1.6933" lengthAdjust="spacingAndGlyphs"
text-anchor="middle" opacity="0">2</text>
<g class="stroked-text"><desc>2</desc>
<path d="M109.4922 130.5215
L109.5526 130.4610
" />
<path d="M109.5526 130.4610
L109.6736 130.4005
" />
<path d="M109.6736 130.4005
L109.9760 130.4005
" />
<path d="M109.9760 130.4005
L110.0969 130.4610
" />
<path d="M110.0969 130.4610
L110.1574 130.5215
" />
<path d="M110.1574 130.5215
L110.2179 130.6424
" />
<path d="M110.2179 130.6424
L110.2179 130.7634
" />
<path d="M110.2179 130.7634
L110.1574 130.9448
" />
<path d="M110.1574 130.9448
L109.4317 131.6705
" />
<path d="M109.4317 131.6705
L110.2179 131.6705
" />
</g></g>
<g style="fill:#008484; fill-opacity:0.0; 
stroke:#008484; stroke-width:0.1524; stroke-opacity:1; 
stroke-linecap:round; stroke-linejoin:round;">
<text x="110.4900" y="126.3650"
textLength="3.5136" font-size="1.6933" lengthAdjust="spacingAndGlyphs"
text-anchor="middle" opacity="0">J24</text>
<g class="stroked-text"><desc>J24</desc>
<path d="M109.4619 125.0475
L109.4619 125.9547
" />
<path d="M109.4619 125.9547
L109.4014 126.1361
" />
<path d="M109.4014 126.1361
L109.2805 126.2571
" />
<path d="M109.2805 126.2571
L109.0990 126.3175
" />
<path d="M109.0990 126.3175
L108.9781 126.3175
" />
<path d="M110.0062 125.1685
L110.0666 125.1080
" />
<path d="M110.0666 125.1080
L110.1876 125.0475
" />
<path d="M110.1876 125.0475
L110.4900 125.0475
" />
<path d="M110.4900 125.0475
L110.6109 125.1080
" />
<path d="M110.6109 125.1080
L110.6714 125.1685
" />
<path d="M110.6714 125.1685
L110.7319 125.2894
" />
<path d="M110.7319 125.2894
L110.7319 125.4104
" />
<path d="M110.7319 125.4104
L110.6714 125.5918
" />
<path d="M110.6714 125.5918
L109.9457 126.3175
" />
<path d="M109.9457 126.3175
L110.7319 126.3175
" />
<path d="M111.8204 125.4709
L111.8204 126.3175
" />
<path d="M111.5180 124.9871
L111.2157 125.8942
" />
<path d="M111.2157 125.8942
L112.0018 125.8942
" />
</g></g>
<g style="fill:#840084; fill-opacity:0.0; 
stroke:#840084; stroke-width:0.1524; stroke-opacity:1; 
stroke-linecap:round; stroke-linejoin:round;">
<text x="110.4900" y="135.2550"
textLength="5.6908" font-size="1.6933" lengthAdjust="spacingAndGlyphs"
text-anchor="middle" opacity="0">Кулер</text>
<g class="stroked-text"><desc>Кулер</desc>
<path d="M108.0104 135.2075
L108.0104 133.9375
" />
<path d="M108.7361 135.2075
L108.1919 134.4818
" />
<path d="M108.7361 133.9375
L108.0104 134.6632
" />
<path d="M109.1595 134.3609
L109.4619 135.2075
" />
<path d="M109.7642 134.3609
L109.4619 135.2075
" />
<path d="M109.4619 135.2075
L109.3409 135.5099
" />
<path d="M109.3409 135.5099
L109.2804 135.5704
" />
<path d="M109.2804 135.5704
L109.1595 135.6309
" />
<path d="M110.7318 135.2075
L110.7318 134.3609
" />
<path d="M110.7318 134.3609
L110.5504 134.3609
" />
<path d="M110.5504 134.3609
L110.4295 134.4213
" />
<path d="M110.4295 134.4213
L110.3690 134.5423
" />
<path d="M110.3690 134.5423
L110.3085 135.0261
" />
<path d="M110.3085 135.0261
L110.2480 135.1471
" />
<path d="M110.2480 135.1471
L110.1271 135.2075
" />
<path d="M111.8204 135.1471
L111.6995 135.2075
" />
<path d="M111.6995 135.2075
L111.4576 135.2075
" />
<path d="M111.4576 135.2075
L111.3366 135.1471
" />
<path d="M111.3366 135.1471
L111.2762 135.0261
" />
<path d="M111.2762 135.0261
L111.2762 134.5423
" />
<path d="M111.2762 134.5423
L111.3366 134.4213
" />
<path d="M111.3366 134.4213
L111.4576 134.3609
" />
<path d="M111.4576 134.3609
L111.6995 134.3609
" />
<path d="M111.6995 134.3609
L111.8204 134.4213
" />
<path d="M111.8204 134.4213
L111.8809 134.5423
" />
<path d="M111.8809 134.5423
L111.8809 134.6632
" />
<path d="M111.8809 134.6632
L111.2762 134.7842
" />
<path d="M112.4252 134.3609
L112.4252 135.6309
" />
<path d="M112.4252 134.4213
L112.5462 134.3609
" />
<path d="M112.5462 134.3609
L112.7881 134.3609
" />
<path d="M112.7881 134.3609
L112.9090 134.4213
" />
<path d="M112.9090 134.4213
L112.9695 134.4818
" />
<path d="M112.9695 134.4818
L113.0300 134.6028
" />
<path d="M113.0300 134.6028
L113.0300 134.9656
" />
<path d="M113.0300 134.9656
L112.9695 135.0866
" />
<path d="M112.9695 135.0866
L112.9090 135.1471
" />
<path d="M112.9090 135.1471
L112.7881 135.2075
" />
<path d="M112.7881 135.2075
L112.5462 135.2075
" />
<path d="M112.5462 135.2075
L112.4252 135.1471
" />
</g></g>
</g>
<g style="fill:#840084; fill-opacity:0.0; 
stroke:#840084; stroke-width:0.1524; stroke-opacity:1; 
stroke-linecap:round; stroke-linejoin:round;">
<g >
</g>
<g style="fill:#840000; fill-opacity:0.0; 
stroke:#840000; stroke-width:0.1524; stroke-opacity:1; 
stroke-linecap:round; stroke-linejoin:round;">
</g>
<g style="fill:#840000; fill-opacity:0.0; 
stroke:#840000; stroke-width:1.2700; stroke-opacity:1; 
stroke-linecap:round; stroke-linejoin:round;">
<circle cx="66.0400" cy="50.8000" r="1.2700" /> 
</g>
<g style="fill:#008484; fill-opacity:0.0; 
stroke:#008484; stroke-width:1.2700; stroke-opacity:1; 
stroke-linecap:round; stroke-linejoin:round;">
</g>
<g style="fill:#008484; fill-opacity:0.0; 
stroke:#008484; stroke-width:0.1524; stroke-opacity:1; 
stroke-linecap:round; stroke-linejoin:round;">
<text x="69.9215" y="50.7913"
textLength="2.6670" font-size="1.6933" lengthAdjust="spacingAndGlyphs"
text-anchor="middle" opacity="0">H6</text>
<g class="stroked-text"><desc>H6</desc>
<path d="M68.9538 50.7438
L68.9538 49.4738
" />
<path d="M68.9538 50.0786
L69.6795 50.0786
" />
<path d="M69.6795 50.7438
L69.6795 49.4738
" />
<path d="M70.8286 49.4738
L70.5867 49.4738
" />
<path d="M70.5867 49.4738
L70.4658 49.5343
" />
<path d="M70.4658 49.5343
L70.4053 49.5948
" />
<path d="M70.4053 49.5948
L70.2843 49.7762
" />
<path d="M70.2843 49.7762
L70.2239 50.0181
" />
<path d="M70.2239 50.0181
L70.2239 50.5019
" />
<path d="M70.2239 50.5019
L70.2843 50.6229
" />
<path d="M70.2843 50.6229
L70.3448 50.6834
" />
<path d="M70.3448 50.6834
L70.4658 50.7438
" />
<path d="M70.4658 50.7438
L70.7077 50.7438
" />
<path d="M70.7077 50.7438
L70.8286 50.6834
" />
<path d="M70.8286 50.6834
L70.8891 50.6229
" />
<path d="M70.8891 50.6229
L70.9496 50.5019
" />
<path d="M70.9496 50.5019
L70.9496 50.1995
" />
<path d="M70.9496 50.1995
L70.8891 50.0786
" />
<path d="M70.8891 50.0786
L70.8286 50.0181
" />
<path d="M70.8286 50.0181
L70.7077 49.9576
" />
<path d="M70.7077 49.9576
L70.4658 49.9576
" />
<path d="M70.4658 49.9576
L70.3448 50.0181
" />
<path d="M70.3448 50.0181
L70.2843 50.0786
" />
<path d="M70.2843 50.0786
L70.2239 50.1995
" />
</g><text x="75.0316" y="52.7123"
textLength="12.8872" font-size="1.6933" lengthAdjust="spacingAndGlyphs"
text-anchor="middle" opacity="0">MountingHole</text>
<g class="stroked-text"><desc>MountingHole</desc>
<path d="M68.9538 52.6648
L68.9538 51.3948
" />
<path d="M68.9538 51.3948
L69.3772 52.3020
" />
<path d="M69.3772 52.3020
L69.8005 51.3948
" />
<path d="M69.8005 51.3948
L69.8005 52.6648
" />
<path d="M70.5867 52.6648
L70.4657 52.6044
" />
<path d="M70.4657 52.6044
L70.4052 52.5439
" />
<path d="M70.4052 52.5439
L70.3448 52.4229
" />
<path d="M70.3448 52.4229
L70.3448 52.0601
" />
<path d="M70.3448 52.0601
L70.4052 51.9391
" />
<path d="M70.4052 51.9391
L70.4657 51.8786
" />
<path d="M70.4657 51.8786
L70.5867 51.8182
" />
<path d="M70.5867 51.8182
L70.7681 51.8182
" />
<path d="M70.7681 51.8182
L70.8890 51.8786
" />
<path d="M70.8890 51.8786
L70.9495 51.9391
" />
<path d="M70.9495 51.9391
L71.0100 52.0601
" />
<path d="M71.0100 52.0601
L71.0100 52.4229
" />
<path d="M71.0100 52.4229
L70.9495 52.5439
" />
<path d="M70.9495 52.5439
L70.8890 52.6044
" />
<path d="M70.8890 52.6044
L70.7681 52.6648
" />
<path d="M70.7681 52.6648
L70.5867 52.6648
" />
<path d="M72.0985 51.8182
L72.0985 52.6648
" />
<path d="M71.5542 51.8182
L71.5542 52.4834
" />
<path d="M71.5542 52.4834
L71.6147 52.6044
" />
<path d="M71.6147 52.6044
L71.7357 52.6648
" />
<path d="M71.7357 52.6648
L71.9171 52.6648
" />
<path d="M71.9171 52.6648
L72.0380 52.6044
" />
<path d="M72.0380 52.6044
L72.0985 52.5439
" />
<path d="M72.7032 51.8182
L72.7032 52.6648
" />
<path d="M72.7032 51.9391
L72.7637 51.8786
" />
<path d="M72.7637 51.8786
L72.8847 51.8182
" />
<path d="M72.8847 51.8182
L73.0661 51.8182
" />
<path d="M73.0661 51.8182
L73.1870 51.8786
" />
<path d="M73.1870 51.8786
L73.2475 51.9996
" />
<path d="M73.2475 51.9996
L73.2475 52.6648
" />
<path d="M73.6708 51.8182
L74.1546 51.8182
" />
<path d="M73.8522 51.3948
L73.8522 52.4834
" />
<path d="M73.8522 52.4834
L73.9127 52.6044
" />
<path d="M73.9127 52.6044
L74.0337 52.6648
" />
<path d="M74.0337 52.6648
L74.1546 52.6648
" />
<path d="M74.5779 52.6648
L74.5779 51.8182
" />
<path d="M74.5779 51.3948
L74.5175 51.4553
" />
<path d="M74.5175 51.4553
L74.5779 51.5158
" />
<path d="M74.5779 51.5158
L74.6384 51.4553
" />
<path d="M74.6384 51.4553
L74.5779 51.3948
" />
<path d="M74.5779 51.3948
L74.5779 51.5158
" />
<path d="M75.1827 51.8182
L75.1827 52.6648
" />
<path d="M75.1827 51.9391
L75.2432 51.8786
" />
<path d="M75.2432 51.8786
L75.3642 51.8182
" />
<path d="M75.3642 51.8182
L75.5456 51.8182
" />
<path d="M75.5456 51.8182
L75.6665 51.8786
" />
<path d="M75.6665 51.8786
L75.7270 51.9996
" />
<path d="M75.7270 51.9996
L75.7270 52.6648
" />
<path d="M76.8760 51.8182
L76.8760 52.8463
" />
<path d="M76.8760 52.8463
L76.8155 52.9672
" />
<path d="M76.8155 52.9672
L76.7551 53.0277
" />
<path d="M76.7551 53.0277
L76.6341 53.0882
" />
<path d="M76.6341 53.0882
L76.4527 53.0882
" />
<path d="M76.4527 53.0882
L76.3317 53.0277
" />
<path d="M76.8760 52.6044
L76.7551 52.6648
" />
<path d="M76.7551 52.6648
L76.5132 52.6648
" />
<path d="M76.5132 52.6648
L76.3922 52.6044
" />
<path d="M76.3922 52.6044
L76.3317 52.5439
" />
<path d="M76.3317 52.5439
L76.2713 52.4229
" />
<path d="M76.2713 52.4229
L76.2713 52.0601
" />
<path d="M76.2713 52.0601
L76.3317 51.9391
" />
<path d="M76.3317 51.9391
L76.3922 51.8786
" />
<path d="M76.3922 51.8786
L76.5132 51.8182
" />
<path d="M76.5132 51.8182
L76.7551 51.8182
" />
<path d="M76.7551 51.8182
L76.8760 51.8786
" />
<path d="M77.4807 52.6648
L77.4807 51.3948
" />
<path d="M77.4807 51.9996
L78.2064 51.9996
" />
<path d="M78.2064 52.6648
L78.2064 51.3948
" />
<path d="M78.9927 52.6648
L78.8717 52.6044
" />
<path d="M78.8717 52.6044
L78.8112 52.5439
" />
<path d="M78.8112 52.5439
L78.7508 52.4229
" />
<path d="M78.7508 52.4229
L78.7508 52.0601
" />
<path d="M78.7508 52.0601
L78.8112 51.9391
" />
<path d="M78.8112 51.9391
L78.8717 51.8786
" />
<path d="M78.8717 51.8786
L78.9927 51.8182
" />
<path d="M78.9927 51.8182
L79.1741 51.8182
" />
<path d="M79.1741 51.8182
L79.2950 51.8786
" />
<path d="M79.2950 51.8786
L79.3555 51.9391
" />
<path d="M79.3555 51.9391
L79.4160 52.0601
" />
<path d="M79.4160 52.0601
L79.4160 52.4229
" />
<path d="M79.4160 52.4229
L79.3555 52.5439
" />
<path d="M79.3555 52.5439
L79.2950 52.6044
" />
<path d="M79.2950 52.6044
L79.1741 52.6648
" />
<path d="M79.1741 52.6648
L78.9927 52.6648
" />
<path d="M80.1417 52.6648
L80.0207 52.6044
" />
<path d="M80.0207 52.6044
L79.9602 52.4834
" />
<path d="M79.9602 52.4834
L79.9602 51.3948
" />
<path d="M81.1092 52.6044
L80.9883 52.6648
" />
<path d="M80.9883 52.6648
L80.7464 52.6648
" />
<path d="M80.7464 52.6648
L80.6254 52.6044
" />
<path d="M80.6254 52.6044
L80.5650 52.4834
" />
<path d="M80.5650 52.4834
L80.5650 51.9996
" />
<path d="M80.5650 51.9996
L80.6254 51.8786
" />
<path d="M80.6254 51.8786
L80.7464 51.8182
" />
<path d="M80.7464 51.8182
L80.9883 51.8182
" />
<path d="M80.9883 51.8182
L81.1092 51.8786
" />
<path d="M81.1092 51.8786
L81.1697 51.9996
" />
<path d="M81.1697 51.9996
L81.1697 52.1205
" />
<path d="M81.1697 52.1205
L80.5650 52.2415
" />
</g></g>
</g>
<g style="fill:#008484; fill-opacity:0.0; 
stroke:#008484; stroke-width:0.1524; stroke-opacity:1; 
stroke-linecap:round; stroke-linejoin:round;">
<g >
</g>
<g style="fill:#840000; fill-opacity:0.0; 
stroke:#840000; stroke-width:0.1524; stroke-opacity:1; 
stroke-linecap:round; stroke-linejoin:round;">
</g>
<g style="fill:#840000; fill-opacity:0.0; 
stroke:#840000; stroke-width:1.2700; stroke-opacity:1; 
stroke-linecap:round; stroke-linejoin:round;">
<circle cx="38.1000" cy="50.8000" r="1.2700" /> 
</g>
<g style="fill:#008484; fill-opacity:0.0; 
stroke:#008484; stroke-width:1.2700; stroke-opacity:1; 
stroke-linecap:round; stroke-linejoin:round;">
</g>
<g style="fill:#008484; fill-opacity:0.0; 
stroke:#008484; stroke-width:0.1524; stroke-opacity:1; 
stroke-linecap:round; stroke-linejoin:round;">
<text x="41.9815" y="50.7913"
textLength="2.6670" font-size="1.6933" lengthAdjust="spacingAndGlyphs"
text-anchor="middle" opacity="0">H5</text>
<g class="stroked-text"><desc>H5</desc>
<path d="M41.0138 50.7438
L41.0138 49.4738
" />
<path d="M41.0138 50.0786
L41.7395 50.0786
" />
<path d="M41.7395 50.7438
L41.7395 49.4738
" />
<path d="M42.9491 49.4738
L42.3443 49.4738
" />
<path d="M42.3443 49.4738
L42.2839 50.0786
" />
<path d="M42.2839 50.0786
L42.3443 50.0181
" />
<path d="M42.3443 50.0181
L42.4653 49.9576
" />
<path d="M42.4653 49.9576
L42.7677 49.9576
" />
<path d="M42.7677 49.9576
L42.8886 50.0181
" />
<path d="M42.8886 50.0181
L42.9491 50.0786
" />
<path d="M42.9491 50.0786
L43.0096 50.1995
" />
<path d="M43.0096 50.1995
L43.0096 50.5019
" />
<path d="M43.0096 50.5019
L42.9491 50.6229
" />
<path d="M42.9491 50.6229
L42.8886 50.6834
" />
<path d="M42.8886 50.6834
L42.7677 50.7438
" />
<path d="M42.7677 50.7438
L42.4653 50.7438
" />
<path d="M42.4653 50.7438
L42.3443 50.6834
" />
<path d="M42.3443 50.6834
L42.2839 50.6229
" />
</g><text x="47.0916" y="52.7123"
textLength="12.8872" font-size="1.6933" lengthAdjust="spacingAndGlyphs"
text-anchor="middle" opacity="0">MountingHole</text>
<g class="stroked-text"><desc>MountingHole</desc>
<path d="M41.0138 52.6648
L41.0138 51.3948
" />
<path d="M41.0138 51.3948
L41.4372 52.3020
" />
<path d="M41.4372 52.3020
L41.8605 51.3948
" />
<path d="M41.8605 51.3948
L41.8605 52.6648
" />
<path d="M42.6467 52.6648
L42.5257 52.6044
" />
<path d="M42.5257 52.6044
L42.4652 52.5439
" />
<path d="M42.4652 52.5439
L42.4048 52.4229
" />
<path d="M42.4048 52.4229
L42.4048 52.0601
" />
<path d="M42.4048 52.0601
L42.4652 51.9391
" />
<path d="M42.4652 51.9391
L42.5257 51.8786
" />
<path d="M42.5257 51.8786
L42.6467 51.8182
" />
<path d="M42.6467 51.8182
L42.8281 51.8182
" />
<path d="M42.8281 51.8182
L42.9490 51.8786
" />
<path d="M42.9490 51.8786
L43.0095 51.9391
" />
<path d="M43.0095 51.9391
L43.0700 52.0601
" />
<path d="M43.0700 52.0601
L43.0700 52.4229
" />
<path d="M43.0700 52.4229
L43.0095 52.5439
" />
<path d="M43.0095 52.5439
L42.9490 52.6044
" />
<path d="M42.9490 52.6044
L42.8281 52.6648
" />
<path d="M42.8281 52.6648
L42.6467 52.6648
" />
<path d="M44.1585 51.8182
L44.1585 52.6648
" />
<path d="M43.6142 51.8182
L43.6142 52.4834
" />
<path d="M43.6142 52.4834
L43.6747 52.6044
" />
<path d="M43.6747 52.6044
L43.7957 52.6648
" />
<path d="M43.7957 52.6648
L43.9771 52.6648
" />
<path d="M43.9771 52.6648
L44.0980 52.6044
" />
<path d="M44.0980 52.6044
L44.1585 52.5439
" />
<path d="M44.7632 51.8182
L44.7632 52.6648
" />
<path d="M44.7632 51.9391
L44.8237 51.8786
" />
<path d="M44.8237 51.8786
L44.9447 51.8182
" />
<path d="M44.9447 51.8182
L45.1261 51.8182
" />
<path d="M45.1261 51.8182
L45.2470 51.8786
" />
<path d="M45.2470 51.8786
L45.3075 51.9996
" />
<path d="M45.3075 51.9996
L45.3075 52.6648
" />
<path d="M45.7308 51.8182
L46.2146 51.8182
" />
<path d="M45.9122 51.3948
L45.9122 52.4834
" />
<path d="M45.9122 52.4834
L45.9727 52.6044
" />
<path d="M45.9727 52.6044
L46.0937 52.6648
" />
<path d="M46.0937 52.6648
L46.2146 52.6648
" />
<path d="M46.6379 52.6648
L46.6379 51.8182
" />
<path d="M46.6379 51.3948
L46.5775 51.4553
" />
<path d="M46.5775 51.4553
L46.6379 51.5158
" />
<path d="M46.6379 51.5158
L46.6984 51.4553
" />
<path d="M46.6984 51.4553
L46.6379 51.3948
" />
<path d="M46.6379 51.3948
L46.6379 51.5158
" />
<path d="M47.2427 51.8182
L47.2427 52.6648
" />
<path d="M47.2427 51.9391
L47.3032 51.8786
" />
<path d="M47.3032 51.8786
L47.4242 51.8182
" />
<path d="M47.4242 51.8182
L47.6056 51.8182
" />
<path d="M47.6056 51.8182
L47.7265 51.8786
" />
<path d="M47.7265 51.8786
L47.7870 51.9996
" />
<path d="M47.7870 51.9996
L47.7870 52.6648
" />
<path d="M48.9360 51.8182
L48.9360 52.8463
" />
<path d="M48.9360 52.8463
L48.8755 52.9672
" />
<path d="M48.8755 52.9672
L48.8151 53.0277
" />
<path d="M48.8151 53.0277
L48.6941 53.0882
" />
<path d="M48.6941 53.0882
L48.5127 53.0882
" />
<path d="M48.5127 53.0882
L48.3917 53.0277
" />
<path d="M48.9360 52.6044
L48.8151 52.6648
" />
<path d="M48.8151 52.6648
L48.5732 52.6648
" />
<path d="M48.5732 52.6648
L48.4522 52.6044
" />
<path d="M48.4522 52.6044
L48.3917 52.5439
" />
<path d="M48.3917 52.5439
L48.3313 52.4229
" />
<path d="M48.3313 52.4229
L48.3313 52.0601
" />
<path d="M48.3313 52.0601
L48.3917 51.9391
" />
<path d="M48.3917 51.9391
L48.4522 51.8786
" />
<path d="M48.4522 51.8786
L48.5732 51.8182
" />
<path d="M48.5732 51.8182
L48.8151 51.8182
" />
<path d="M48.8151 51.8182
L48.9360 51.8786
" />
<path d="M49.5407 52.6648
L49.5407 51.3948
" />
<path d="M49.5407 51.9996
L50.2664 51.9996
" />
<path d="M50.2664 52.6648
L50.2664 51.3948
" />
<path d="M51.0527 52.6648
L50.9317 52.6044
" />
<path d="M50.9317 52.6044
L50.8712 52.5439
" />
<path d="M50.8712 52.5439
L50.8108 52.4229
" />
<path d="M50.8108 52.4229
L50.8108 52.0601
" />
<path d="M50.8108 52.0601
L50.8712 51.9391
" />
<path d="M50.8712 51.9391
L50.9317 51.8786
" />
<path d="M50.9317 51.8786
L51.0527 51.8182
" />
<path d="M51.0527 51.8182
L51.2341 51.8182
" />
<path d="M51.2341 51.8182
L51.3550 51.8786
" />
<path d="M51.3550 51.8786
L51.4155 51.9391
" />
<path d="M51.4155 51.9391
L51.4760 52.0601
" />
<path d="M51.4760 52.0601
L51.4760 52.4229
" />
<path d="M51.4760 52.4229
L51.4155 52.5439
" />
<path d="M51.4155 52.5439
L51.3550 52.6044
" />
<path d="M51.3550 52.6044
L51.2341 52.6648
" />
<path d="M51.2341 52.6648
L51.0527 52.6648
" />
<path d="M52.2017 52.6648
L52.0807 52.6044
" />
<path d="M52.0807 52.6044
L52.0202 52.4834
" />
<path d="M52.0202 52.4834
L52.0202 51.3948
" />
<path d="M53.1692 52.6044
L53.0483 52.6648
" />
<path d="M53.0483 52.6648
L52.8064 52.6648
" />
<path d="M52.8064 52.6648
L52.6854 52.6044
" />
<path d="M52.6854 52.6044
L52.6250 52.4834
" />
<path d="M52.6250 52.4834
L52.6250 51.9996
" />
<path d="M52.6250 51.9996
L52.6854 51.8786
" />
<path d="M52.6854 51.8786
L52.8064 51.8182
" />
<path d="M52.8064 51.8182
L53.0483 51.8182
" />
<path d="M53.0483 51.8182
L53.1692 51.8786
" />
<path d="M53.1692 51.8786
L53.2297 51.9996
" />
<path d="M53.2297 51.9996
L53.2297 52.1205
" />
<path d="M53.2297 52.1205
L52.6250 52.2415
" />
</g></g>
</g>
<g style="fill:#008484; fill-opacity:0.0; 
stroke:#008484; stroke-width:0.1524; stroke-opacity:1; 
stroke-linecap:round; stroke-linejoin:round;">
<g >
</g>
<g style="fill:#840000; fill-opacity:0.0; 
stroke:#840000; stroke-width:0.1524; stroke-opacity:1; 
stroke-linecap:round; stroke-linejoin:round;">
</g>
<g style="fill:#840000; fill-opacity:0.0; 
stroke:#840000; stroke-width:1.2700; stroke-opacity:1; 
stroke-linecap:round; stroke-linejoin:round;">
<circle cx="127.0000" cy="52.0700" r="1.2700" /> 
</g>
<g style="fill:#008484; fill-opacity:0.0; 
stroke:#008484; stroke-width:1.2700; stroke-opacity:1; 
stroke-linecap:round; stroke-linejoin:round;">
</g>
<g style="fill:#008484; fill-opacity:0.0; 
stroke:#008484; stroke-width:0.1524; stroke-opacity:1; 
stroke-linecap:round; stroke-linejoin:round;">
<text x="130.8815" y="52.0613"
textLength="2.6670" font-size="1.6933" lengthAdjust="spacingAndGlyphs"
text-anchor="middle" opacity="0">H8</text>
<g class="stroked-text"><desc>H8</desc>
<path d="M129.9138 52.0138
L129.9138 50.7438
" />
<path d="M129.9138 51.3486
L130.6395 51.3486
" />
<path d="M130.6395 52.0138
L130.6395 50.7438
" />
<path d="M131.4258 51.2881
L131.3048 51.2276
" />
<path d="M131.3048 51.2276
L131.2443 51.1672
" />
<path d="M131.2443 51.1672
L131.1839 51.0462
" />
<path d="M131.1839 51.0462
L131.1839 50.9857
" />
<path d="M131.1839 50.9857
L131.2443 50.8648
" />
<path d="M131.2443 50.8648
L131.3048 50.8043
" />
<path d="M131.3048 50.8043
L131.4258 50.7438
" />
<path d="M131.4258 50.7438
L131.6677 50.7438
" />
<path d="M131.6677 50.7438
L131.7886 50.8043
" />
<path d="M131.7886 50.8043
L131.8491 50.8648
" />
<path d="M131.8491 50.8648
L131.9096 50.9857
" />
<path d="M131.9096 50.9857
L131.9096 51.0462
" />
<path d="M131.9096 51.0462
L131.8491 51.1672
" />
<path d="M131.8491 51.1672
L131.7886 51.2276
" />
<path d="M131.7886 51.2276
L131.6677 51.2881
" />
<path d="M131.6677 51.2881
L131.4258 51.2881
" />
<path d="M131.4258 51.2881
L131.3048 51.3486
" />
<path d="M131.3048 51.3486
L131.2443 51.4091
" />
<path d="M131.2443 51.4091
L131.1839 51.5300
" />
<path d="M131.1839 51.5300
L131.1839 51.7719
" />
<path d="M131.1839 51.7719
L131.2443 51.8929
" />
<path d="M131.2443 51.8929
L131.3048 51.9534
" />
<path d="M131.3048 51.9534
L131.4258 52.0138
" />
<path d="M131.4258 52.0138
L131.6677 52.0138
" />
<path d="M131.6677 52.0138
L131.7886 51.9534
" />
<path d="M131.7886 51.9534
L131.8491 51.8929
" />
<path d="M131.8491 51.8929
L131.9096 51.7719
" />
<path d="M131.9096 51.7719
L131.9096 51.5300
" />
<path d="M131.9096 51.5300
L131.8491 51.4091
" />
<path d="M131.8491 51.4091
L131.7886 51.3486
" />
<path d="M131.7886 51.3486
L131.6677 51.2881
" />
</g><text x="135.9916" y="53.9823"
textLength="12.8872" font-size="1.6933" lengthAdjust="spacingAndGlyphs"
text-anchor="middle" opacity="0">MountingHole</text>
<g class="stroked-text"><desc>MountingHole</desc>
<path d="M129.9138 53.9348
L129.9138 52.6648
" />
<path d="M129.9138 52.6648
L130.3372 53.5720
" />
<path d="M130.3372 53.5720
L130.7605 52.6648
" />
<path d="M130.7605 52.6648
L130.7605 53.9348
" />
<path d="M131.5467 53.9348
L131.4257 53.8744
" />
<path d="M131.4257 53.8744
L131.3652 53.8139
" />
<path d="M131.3652 53.8139
L131.3048 53.6929
" />
<path d="M131.3048 53.6929
L131.3048 53.3301
" />
<path d="M131.3048 53.3301
L131.3652 53.2091
" />
<path d="M131.3652 53.2091
L131.4257 53.1486
" />
<path d="M131.4257 53.1486
L131.5467 53.0882
" />
<path d="M131.5467 53.0882
L131.7281 53.0882
" />
<path d="M131.7281 53.0882
L131.8490 53.1486
" />
<path d="M131.8490 53.1486
L131.9095 53.2091
" />
<path d="M131.9095 53.2091
L131.9700 53.3301
" />
<path d="M131.9700 53.3301
L131.9700 53.6929
" />
<path d="M131.9700 53.6929
L131.9095 53.8139
" />
<path d="M131.9095 53.8139
L131.8490 53.8744
" />
<path d="M131.8490 53.8744
L131.7281 53.9348
" />
<path d="M131.7281 53.9348
L131.5467 53.9348
" />
<path d="M133.0585 53.0882
L133.0585 53.9348
" />
<path d="M132.5142 53.0882
L132.5142 53.7534
" />
<path d="M132.5142 53.7534
L132.5747 53.8744
" />
<path d="M132.5747 53.8744
L132.6957 53.9348
" />
<path d="M132.6957 53.9348
L132.8771 53.9348
" />
<path d="M132.8771 53.9348
L132.9980 53.8744
" />
<path d="M132.9980 53.8744
L133.0585 53.8139
" />
<path d="M133.6632 53.0882
L133.6632 53.9348
" />
<path d="M133.6632 53.2091
L133.7237 53.1486
" />
<path d="M133.7237 53.1486
L133.8447 53.0882
" />
<path d="M133.8447 53.0882
L134.0261 53.0882
" />
<path d="M134.0261 53.0882
L134.1470 53.1486
" />
<path d="M134.1470 53.1486
L134.2075 53.2696
" />
<path d="M134.2075 53.2696
L134.2075 53.9348
" />
<path d="M134.6308 53.0882
L135.1146 53.0882
" />
<path d="M134.8122 52.6648
L134.8122 53.7534
" />
<path d="M134.8122 53.7534
L134.8727 53.8744
" />
<path d="M134.8727 53.8744
L134.9937 53.9348
" />
<path d="M134.9937 53.9348
L135.1146 53.9348
" />
<path d="M135.5379 53.9348
L135.5379 53.0882
" />
<path d="M135.5379 52.6648
L135.4775 52.7253
" />
<path d="M135.4775 52.7253
L135.5379 52.7858
" />
<path d="M135.5379 52.7858
L135.5984 52.7253
" />
<path d="M135.5984 52.7253
L135.5379 52.6648
" />
<path d="M135.5379 52.6648
L135.5379 52.7858
" />
<path d="M136.1427 53.0882
L136.1427 53.9348
" />
<path d="M136.1427 53.2091
L136.2032 53.1486
" />
<path d="M136.2032 53.1486
L136.3242 53.0882
" />
<path d="M136.3242 53.0882
L136.5056 53.0882
" />
<path d="M136.5056 53.0882
L136.6265 53.1486
" />
<path d="M136.6265 53.1486
L136.6870 53.2696
" />
<path d="M136.6870 53.2696
L136.6870 53.9348
" />
<path d="M137.8360 53.0882
L137.8360 54.1163
" />
<path d="M137.8360 54.1163
L137.7755 54.2372
" />
<path d="M137.7755 54.2372
L137.7151 54.2977
" />
<path d="M137.7151 54.2977
L137.5941 54.3582
" />
<path d="M137.5941 54.3582
L137.4127 54.3582
" />
<path d="M137.4127 54.3582
L137.2917 54.2977
" />
<path d="M137.8360 53.8744
L137.7151 53.9348
" />
<path d="M137.7151 53.9348
L137.4732 53.9348
" />
<path d="M137.4732 53.9348
L137.3522 53.8744
" />
<path d="M137.3522 53.8744
L137.2917 53.8139
" />
<path d="M137.2917 53.8139
L137.2313 53.6929
" />
<path d="M137.2313 53.6929
L137.2313 53.3301
" />
<path d="M137.2313 53.3301
L137.2917 53.2091
" />
<path d="M137.2917 53.2091
L137.3522 53.1486
" />
<path d="M137.3522 53.1486
L137.4732 53.0882
" />
<path d="M137.4732 53.0882
L137.7151 53.0882
" />
<path d="M137.7151 53.0882
L137.8360 53.1486
" />
<path d="M138.4407 53.9348
L138.4407 52.6648
" />
<path d="M138.4407 53.2696
L139.1664 53.2696
" />
<path d="M139.1664 53.9348
L139.1664 52.6648
" />
<path d="M139.9527 53.9348
L139.8317 53.8744
" />
<path d="M139.8317 53.8744
L139.7712 53.8139
" />
<path d="M139.7712 53.8139
L139.7108 53.6929
" />
<path d="M139.7108 53.6929
L139.7108 53.3301
" />
<path d="M139.7108 53.3301
L139.7712 53.2091
" />
<path d="M139.7712 53.2091
L139.8317 53.1486
" />
<path d="M139.8317 53.1486
L139.9527 53.0882
" />
<path d="M139.9527 53.0882
L140.1341 53.0882
" />
<path d="M140.1341 53.0882
L140.2550 53.1486
" />
<path d="M140.2550 53.1486
L140.3155 53.2091
" />
<path d="M140.3155 53.2091
L140.3760 53.3301
" />
<path d="M140.3760 53.3301
L140.3760 53.6929
" />
<path d="M140.3760 53.6929
L140.3155 53.8139
" />
<path d="M140.3155 53.8139
L140.2550 53.8744
" />
<path d="M140.2550 53.8744
L140.1341 53.9348
" />
<path d="M140.1341 53.9348
L139.9527 53.9348
" />
<path d="M141.1017 53.9348
L140.9807 53.8744
" />
<path d="M140.9807 53.8744
L140.9202 53.7534
" />
<path d="M140.9202 53.7534
L140.9202 52.6648
" />
<path d="M142.0692 53.8744
L141.9483 53.9348
" />
<path d="M141.9483 53.9348
L141.7064 53.9348
" />
<path d="M141.7064 53.9348
L141.5854 53.8744
" />
<path d="M141.5854 53.8744
L141.5250 53.7534
" />
<path d="M141.5250 53.7534
L141.5250 53.2696
" />
<path d="M141.5250 53.2696
L141.5854 53.1486
" />
<path d="M141.5854 53.1486
L141.7064 53.0882
" />
<path d="M141.7064 53.0882
L141.9483 53.0882
" />
<path d="M141.9483 53.0882
L142.0692 53.1486
" />
<path d="M142.0692 53.1486
L142.1297 53.2696
" />
<path d="M142.1297 53.2696
L142.1297 53.3905
" />
<path d="M142.1297 53.3905
L141.5250 53.5115
" />
</g></g>
</g>
<g style="fill:#008484; fill-opacity:0.0; 
stroke:#008484; stroke-width:0.1524; stroke-opacity:1; 
stroke-linecap:round; stroke-linejoin:round;">
<g >
</g>
<g style="fill:#840000; fill-opacity:0.0; 
stroke:#840000; stroke-width:0.1524; stroke-opacity:1; 
stroke-linecap:round; stroke-linejoin:round;">
<path style="fill:#840000; fill-opacity:0.0; 
stroke:#840000; stroke-width:0.1524; stroke-opacity:1; 
stroke-linecap:round; stroke-linejoin:round;fill:none"
d="M 101.6000,113.0300
101.6000,112.6236
" /> 
<path style="fill:#840000; fill-opacity:0.0; 
stroke:#840000; stroke-width:0.1524; stroke-opacity:1; 
stroke-linecap:round; stroke-linejoin:round;fill:none"
d="M 104.1400,113.0300
104.1400,112.6236
" /> 
</g>
<g style="fill:#840000; fill-opacity:1.0000; 
stroke:#840000; stroke-width:0.1524; stroke-opacity:1; 
stroke-linecap:round; stroke-linejoin:round;">
<rect x="101.473000" y="111.760000" width="0.254000" height="0.863600" rx="0.000000" />
<rect x="104.013000" y="111.760000" width="0.254000" height="0.863600" rx="0.000000" />
</g>
<g style="fill:#840000; fill-opacity:0.0; 
stroke:#840000; stroke-width:0.1524; stroke-opacity:1; 
stroke-linecap:round; stroke-linejoin:round;">
<path d="M104.1400 113.0300
L104.1400 116.8400
" />
<g transform="rotate(-90.000000 103.8860 114.9350)">
<text x="103.8860" y="114.9350"
textLength="1.3365" font-size="1.6933" lengthAdjust="spacingAndGlyphs"
text-anchor="middle" opacity="0">1</text>
</g>
<g class="stroked-text"><desc>1</desc>
<path d="M103.7305 114.5720
L103.7305 115.2977
" />
<path d="M103.7305 114.9349
L102.4605 114.9349
" />
<path d="M102.4605 114.9349
L102.6420 115.0558
" />
<path d="M102.6420 115.0558
L102.7629 115.1768
" />
<path d="M102.7629 115.1768
L102.8234 115.2977
" />
</g><path d="M101.6000 113.0300
L101.6000 116.8400
" />
<g transform="rotate(-90.000000 101.3460 114.9350)">
<text x="101.3460" y="114.9350"
textLength="1.3365" font-size="1.6933" lengthAdjust="spacingAndGlyphs"
text-anchor="middle" opacity="0">2</text>
</g>
<g class="stroked-text"><desc>2</desc>
<path d="M100.0415 115.2977
L99.9810 115.2373
" />
<path d="M99.9810 115.2373
L99.9205 115.1163
" />
<path d="M99.9205 115.1163
L99.9205 114.8139
" />
<path d="M99.9205 114.8139
L99.9810 114.6930
" />
<path d="M99.9810 114.6930
L100.0415 114.6325
" />
<path d="M100.0415 114.6325
L100.1624 114.5720
" />
<path d="M100.1624 114.5720
L100.2834 114.5720
" />
<path d="M100.2834 114.5720
L100.4648 114.6325
" />
<path d="M100.4648 114.6325
L101.1905 115.3582
" />
<path d="M101.1905 115.3582
L101.1905 114.5720
" />
</g></g>
<g style="fill:#008484; fill-opacity:0.0; 
stroke:#008484; stroke-width:0.1524; stroke-opacity:1; 
stroke-linecap:round; stroke-linejoin:round;">
<text x="106.6800" y="113.6650"
textLength="3.5136" font-size="1.6933" lengthAdjust="spacingAndGlyphs"
text-anchor="middle" opacity="0">J22</text>
<g class="stroked-text"><desc>J22</desc>
<path d="M105.6519 112.3475
L105.6519 113.2547
" />
<path d="M105.6519 113.2547
L105.5914 113.4361
" />
<path d="M105.5914 113.4361
L105.4705 113.5571
" />
<path d="M105.4705 113.5571
L105.2890 113.6175
" />
<path d="M105.2890 113.6175
L105.1681 113.6175
" />
<path d="M106.1962 112.4685
L106.2566 112.4080
" />
<path d="M106.2566 112.4080
L106.3776 112.3475
" />
<path d="M106.3776 112.3475
L106.6800 112.3475
" />
<path d="M106.6800 112.3475
L106.8009 112.4080
" />
<path d="M106.8009 112.4080
L106.8614 112.4685
" />
<path d="M106.8614 112.4685
L106.9219 112.5894
" />
<path d="M106.9219 112.5894
L106.9219 112.7104
" />
<path d="M106.9219 112.7104
L106.8614 112.8918
" />
<path d="M106.8614 112.8918
L106.1357 113.6175
" />
<path d="M106.1357 113.6175
L106.9219 113.6175
" />
<path d="M107.4057 112.4685
L107.4661 112.4080
" />
<path d="M107.4661 112.4080
L107.5871 112.3475
" />
<path d="M107.5871 112.3475
L107.8895 112.3475
" />
<path d="M107.8895 112.3475
L108.0104 112.4080
" />
<path d="M108.0104 112.4080
L108.0709 112.4685
" />
<path d="M108.0709 112.4685
L108.1314 112.5894
" />
<path d="M108.1314 112.5894
L108.1314 112.7104
" />
<path d="M108.1314 112.7104
L108.0709 112.8918
" />
<path d="M108.0709 112.8918
L107.3452 113.6175
" />
<path d="M107.3452 113.6175
L108.1314 113.6175
" />
</g></g>
<g style="fill:#840084; fill-opacity:0.0; 
stroke:#840084; stroke-width:0.1524; stroke-opacity:1; 
stroke-linecap:round; stroke-linejoin:round;">
<text x="108.9285" y="116.2050"
textLength="7.0211" font-size="1.6933" lengthAdjust="spacingAndGlyphs"
text-anchor="middle" opacity="0">Кнопка</text>
<g class="stroked-text"><desc>Кнопка</desc>
<path d="M105.7838 116.1575
L105.7838 114.8875
" />
<path d="M106.5095 116.1575
L105.9653 115.4318
" />
<path d="M106.5095 114.8875
L105.7838 115.6132
" />
<path d="M107.0538 115.7342
L107.5981 115.7342
" />
<path d="M107.0538 115.3109
L107.0538 116.1575
" />
<path d="M107.5981 115.3109
L107.5981 116.1575
" />
<path d="M108.3843 116.1575
L108.2633 116.0971
" />
<path d="M108.2633 116.0971
L108.2028 116.0366
" />
<path d="M108.2028 116.0366
L108.1424 115.9156
" />
<path d="M108.1424 115.9156
L108.1424 115.5528
" />
<path d="M108.1424 115.5528
L108.2028 115.4318
" />
<path d="M108.2028 115.4318
L108.2633 115.3713
" />
<path d="M108.2633 115.3713
L108.3843 115.3109
" />
<path d="M108.3843 115.3109
L108.5657 115.3109
" />
<path d="M108.5657 115.3109
L108.6866 115.3713
" />
<path d="M108.6866 115.3713
L108.7471 115.4318
" />
<path d="M108.7471 115.4318
L108.8076 115.5528
" />
<path d="M108.8076 115.5528
L108.8076 115.9156
" />
<path d="M108.8076 115.9156
L108.7471 116.0366
" />
<path d="M108.7471 116.0366
L108.6866 116.0971
" />
<path d="M108.6866 116.0971
L108.5657 116.1575
" />
<path d="M108.5657 116.1575
L108.3843 116.1575
" />
<path d="M109.3518 116.1575
L109.3518 115.3109
" />
<path d="M109.3518 115.3109
L109.8961 115.3109
" />
<path d="M109.8961 115.3109
L109.8961 116.1575
" />
<path d="M110.5008 115.3109
L110.5008 116.1575
" />
<path d="M110.6218 115.6737
L110.9846 116.1575
" />
<path d="M110.9846 115.3109
L110.5008 115.7947
" />
<path d="M112.0732 116.1575
L112.0732 115.4923
" />
<path d="M112.0732 115.4923
L112.0127 115.3713
" />
<path d="M112.0127 115.3713
L111.8918 115.3109
" />
<path d="M111.8918 115.3109
L111.6499 115.3109
" />
<path d="M111.6499 115.3109
L111.5289 115.3713
" />
<path d="M112.0732 116.0971
L111.9523 116.1575
" />
<path d="M111.9523 116.1575
L111.6499 116.1575
" />
<path d="M111.6499 116.1575
L111.5289 116.0971
" />
<path d="M111.5289 116.0971
L111.4685 115.9761
" />
<path d="M111.4685 115.9761
L111.4685 115.8551
" />
<path d="M111.4685 115.8551
L111.5289 115.7342
" />
<path d="M111.5289 115.7342
L111.6499 115.6737
" />
<path d="M111.6499 115.6737
L111.9523 115.6737
" />
<path d="M111.9523 115.6737
L112.0732 115.6132
" />
</g></g>
</g>
<g style="fill:#840084; fill-opacity:0.0; 
stroke:#840084; stroke-width:0.1524; stroke-opacity:1; 
stroke-linecap:round; stroke-linejoin:round;">
<g >
</g>
<g style="fill:#840000; fill-opacity:0.0; 
stroke:#840000; stroke-width:0.1524; stroke-opacity:1; 
stroke-linecap:round; stroke-linejoin:round;">
<path style="fill:#840000; fill-opacity:0.0; 
stroke:#840000; stroke-width:0.1524; stroke-opacity:1; 
stroke-linecap:round; stroke-linejoin:round;fill:none"
d="M 95.2500,121.9200
94.8436,121.9200
" /> 
<path style="fill:#840000; fill-opacity:0.0; 
stroke:#840000; stroke-width:0.1524; stroke-opacity:1; 
stroke-linecap:round; stroke-linejoin:round;fill:none"
d="M 95.2500,119.3800
94.8436,119.3800
" /> 
</g>
<g style="fill:#840000; fill-opacity:1.0000; 
stroke:#840000; stroke-width:0.1524; stroke-opacity:1; 
stroke-linecap:round; stroke-linejoin:round;">
<rect x="93.980000" y="121.793000" width="0.863600" height="0.254000" rx="0.000000" />
<rect x="93.980000" y="119.253000" width="0.863600" height="0.254000" rx="0.000000" />
</g>
<g style="fill:#840000; fill-opacity:0.0; 
stroke:#840000; stroke-width:0.1524; stroke-opacity:1; 
stroke-linecap:round; stroke-linejoin:round;">
<path d="M95.2500 119.3800
L99.0600 119.3800
" />
<text x="97.1550" y="119.1260"
textLength="1.3365" font-size="1.6933" lengthAdjust="spacingAndGlyphs"
text-anchor="middle" opacity="0">1</text>
<g class="stroked-text"><desc>1</desc>
<path d="M97.5179 118.9705
L96.7922 118.9705
" />
<path d="M97.1550 118.9705
L97.1550 117.7005
" />
<path d="M97.1550 117.7005
L97.0341 117.8820
" />
<path d="M97.0341 117.8820
L96.9131 118.0029
" />
<path d="M96.9131 118.0029
L96.7922 118.0634
" />
</g><path d="M95.2500 121.9200
L99.0600 121.9200
" />
<text x="97.1550" y="121.6660"
textLength="1.3365" font-size="1.6933" lengthAdjust="spacingAndGlyphs"
text-anchor="middle" opacity="0">2</text>
<g class="stroked-text"><desc>2</desc>
<path d="M96.7922 120.3615
L96.8526 120.3010
" />
<path d="M96.8526 120.3010
L96.9736 120.2405
" />
<path d="M96.9736 120.2405
L97.2760 120.2405
" />
<path d="M97.2760 120.2405
L97.3969 120.3010
" />
<path d="M97.3969 120.3010
L97.4574 120.3615
" />
<path d="M97.4574 120.3615
L97.5179 120.4824
" />
<path d="M97.5179 120.4824
L97.5179 120.6034
" />
<path d="M97.5179 120.6034
L97.4574 120.7848
" />
<path d="M97.4574 120.7848
L96.7317 121.5105
" />
<path d="M96.7317 121.5105
L97.5179 121.5105
" />
</g></g>
<g style="fill:#008484; fill-opacity:0.0; 
stroke:#008484; stroke-width:0.1524; stroke-opacity:1; 
stroke-linecap:round; stroke-linejoin:round;">
<text x="96.5200" y="116.2050"
textLength="3.5136" font-size="1.6933" lengthAdjust="spacingAndGlyphs"
text-anchor="middle" opacity="0">J23</text>
<g class="stroked-text"><desc>J23</desc>
<path d="M95.4919 114.8875
L95.4919 115.7947
" />
<path d="M95.4919 115.7947
L95.4314 115.9761
" />
<path d="M95.4314 115.9761
L95.3105 116.0971
" />
<path d="M95.3105 116.0971
L95.1290 116.1575
" />
<path d="M95.1290 116.1575
L95.0081 116.1575
" />
<path d="M96.0362 115.0085
L96.0966 114.9480
" />
<path d="M96.0966 114.9480
L96.2176 114.8875
" />
<path d="M96.2176 114.8875
L96.5200 114.8875
" />
<path d="M96.5200 114.8875
L96.6409 114.9480
" />
<path d="M96.6409 114.9480
L96.7014 115.0085
" />
<path d="M96.7014 115.0085
L96.7619 115.1294
" />
<path d="M96.7619 115.1294
L96.7619 115.2504
" />
<path d="M96.7619 115.2504
L96.7014 115.4318
" />
<path d="M96.7014 115.4318
L95.9757 116.1575
" />
<path d="M95.9757 116.1575
L96.7619 116.1575
" />
<path d="M97.1852 114.8875
L97.9714 114.8875
" />
<path d="M97.9714 114.8875
L97.5480 115.3713
" />
<path d="M97.5480 115.3713
L97.7295 115.3713
" />
<path d="M97.7295 115.3713
L97.8504 115.4318
" />
<path d="M97.8504 115.4318
L97.9109 115.4923
" />
<path d="M97.9109 115.4923
L97.9714 115.6132
" />
<path d="M97.9714 115.6132
L97.9714 115.9156
" />
<path d="M97.9714 115.9156
L97.9109 116.0366
" />
<path d="M97.9109 116.0366
L97.8504 116.0971
" />
<path d="M97.8504 116.0971
L97.7295 116.1575
" />
<path d="M97.7295 116.1575
L97.3666 116.1575
" />
<path d="M97.3666 116.1575
L97.2457 116.0971
" />
<path d="M97.2457 116.0971
L97.1852 116.0366
" />
</g></g>
</g>
<g style="fill:#008484; fill-opacity:0.0; 
stroke:#008484; stroke-width:0.1524; stroke-opacity:1; 
stroke-linecap:round; stroke-linejoin:round;">
<g >
</g>
<g style="fill:#840000; fill-opacity:0.0; 
stroke:#840000; stroke-width:0.1524; stroke-opacity:1; 
stroke-linecap:round; stroke-linejoin:round;">
</g>
<g style="fill:#840000; fill-opacity:0.0; 
stroke:#840000; stroke-width:1.2700; stroke-opacity:1; 
stroke-linecap:round; stroke-linejoin:round;">
<circle cx="95.2500" cy="49.5300" r="1.2700" /> 
</g>
<g style="fill:#008484; fill-opacity:0.0; 
stroke:#008484; stroke-width:1.2700; stroke-opacity:1; 
stroke-linecap:round; stroke-linejoin:round;">
</g>
<g style="fill:#008484; fill-opacity:0.0; 
stroke:#008484; stroke-width:0.1524; stroke-opacity:1; 
stroke-linecap:round; stroke-linejoin:round;">
<text x="99.1315" y="49.5213"
textLength="2.6670" font-size="1.6933" lengthAdjust="spacingAndGlyphs"
text-anchor="middle" opacity="0">H7</text>
<g class="stroked-text"><desc>H7</desc>
<path d="M98.1638 49.4738
L98.1638 48.2038
" />
<path d="M98.1638 48.8086
L98.8895 48.8086
" />
<path d="M98.8895 49.4738
L98.8895 48.2038
" />
<path d="M99.3734 48.2038
L100.2200 48.2038
" />
<path d="M100.2200 48.2038
L99.6758 49.4738
" />
</g><text x="104.2416" y="51.4423"
textLength="12.8872" font-size="1.6933" lengthAdjust="spacingAndGlyphs"
text-anchor="middle" opacity="0">MountingHole</text>
<g class="stroked-text"><desc>MountingHole</desc>
<path d="M98.1638 51.3948
L98.1638 50.1248
" />
<path d="M98.1638 50.1248
L98.5872 51.0320
" />
<path d="M98.5872 51.0320
L99.0105 50.1248
" />
<path d="M99.0105 50.1248
L99.0105 51.3948
" />
<path d="M99.7967 51.3948
L99.6757 51.3344
" />
<path d="M99.6757 51.3344
L99.6152 51.2739
" />
<path d="M99.6152 51.2739
L99.5548 51.1529
" />
<path d="M99.5548 51.1529
L99.5548 50.7901
" />
<path d="M99.5548 50.7901
L99.6152 50.6691
" />
<path d="M99.6152 50.6691
L99.6757 50.6086
" />
<path d="M99.6757 50.6086
L99.7967 50.5482
" />
<path d="M99.7967 50.5482
L99.9781 50.5482
" />
<path d="M99.9781 50.5482
L100.0990 50.6086
" />
<path d="M100.0990 50.6086
L100.1595 50.6691
" />
<path d="M100.1595 50.6691
L100.2200 50.7901
" />
<path d="M100.2200 50.7901
L100.2200 51.1529
" />
<path d="M100.2200 51.1529
L100.1595 51.2739
" />
<path d="M100.1595 51.2739
L100.0990 51.3344
" />
<path d="M100.0990 51.3344
L99.9781 51.3948
" />
<path d="M99.9781 51.3948
L99.7967 51.3948
" />
<path d="M101.3085 50.5482
L101.3085 51.3948
" />
<path d="M100.7642 50.5482
L100.7642 51.2134
" />
<path d="M100.7642 51.2134
L100.8247 51.3344
" />
<path d="M100.8247 51.3344
L100.9457 51.3948
" />
<path d="M100.9457 51.3948
L101.1271 51.3948
" />
<path d="M101.1271 51.3948
L101.2480 51.3344
" />
<path d="M101.2480 51.3344
L101.3085 51.2739
" />
<path d="M101.9132 50.5482
L101.9132 51.3948
" />
<path d="M101.9132 50.6691
L101.9737 50.6086
" />
<path d="M101.9737 50.6086
L102.0947 50.5482
" />
<path d="M102.0947 50.5482
L102.2761 50.5482
" />
<path d="M102.2761 50.5482
L102.3970 50.6086
" />
<path d="M102.3970 50.6086
L102.4575 50.7296
" />
<path d="M102.4575 50.7296
L102.4575 51.3948
" />
<path d="M102.8808 50.5482
L103.3646 50.5482
" />
<path d="M103.0622 50.1248
L103.0622 51.2134
" />
<path d="M103.0622 51.2134
L103.1227 51.3344
" />
<path d="M103.1227 51.3344
L103.2437 51.3948
" />
<path d="M103.2437 51.3948
L103.3646 51.3948
" />
<path d="M103.7879 51.3948
L103.7879 50.5482
" />
<path d="M103.7879 50.1248
L103.7275 50.1853
" />
<path d="M103.7275 50.1853
L103.7879 50.2458
" />
<path d="M103.7879 50.2458
L103.8484 50.1853
" />
<path d="M103.8484 50.1853
L103.7879 50.1248
" />
<path d="M103.7879 50.1248
L103.7879 50.2458
" />
<path d="M104.3927 50.5482
L104.3927 51.3948
" />
<path d="M104.3927 50.6691
L104.4532 50.6086
" />
<path d="M104.4532 50.6086
L104.5742 50.5482
" />
<path d="M104.5742 50.5482
L104.7556 50.5482
" />
<path d="M104.7556 50.5482
L104.8765 50.6086
" />
<path d="M104.8765 50.6086
L104.9370 50.7296
" />
<path d="M104.9370 50.7296
L104.9370 51.3948
" />
<path d="M106.0860 50.5482
L106.0860 51.5763
" />
<path d="M106.0860 51.5763
L106.0255 51.6972
" />
<path d="M106.0255 51.6972
L105.9651 51.7577
" />
<path d="M105.9651 51.7577
L105.8441 51.8182
" />
<path d="M105.8441 51.8182
L105.6627 51.8182
" />
<path d="M105.6627 51.8182
L105.5417 51.7577
" />
<path d="M106.0860 51.3344
L105.9651 51.3948
" />
<path d="M105.9651 51.3948
L105.7232 51.3948
" />
<path d="M105.7232 51.3948
L105.6022 51.3344
" />
<path d="M105.6022 51.3344
L105.5417 51.2739
" />
<path d="M105.5417 51.2739
L105.4813 51.1529
" />
<path d="M105.4813 51.1529
L105.4813 50.7901
" />
<path d="M105.4813 50.7901
L105.5417 50.6691
" />
<path d="M105.5417 50.6691
L105.6022 50.6086
" />
<path d="M105.6022 50.6086
L105.7232 50.5482
" />
<path d="M105.7232 50.5482
L105.9651 50.5482
" />
<path d="M105.9651 50.5482
L106.0860 50.6086
" />
<path d="M106.6907 51.3948
L106.6907 50.1248
" />
<path d="M106.6907 50.7296
L107.4164 50.7296
" />
<path d="M107.4164 51.3948
L107.4164 50.1248
" />
<path d="M108.2027 51.3948
L108.0817 51.3344
" />
<path d="M108.0817 51.3344
L108.0212 51.2739
" />
<path d="M108.0212 51.2739
L107.9608 51.1529
" />
<path d="M107.9608 51.1529
L107.9608 50.7901
" />
<path d="M107.9608 50.7901
L108.0212 50.6691
" />
<path d="M108.0212 50.6691
L108.0817 50.6086
" />
<path d="M108.0817 50.6086
L108.2027 50.5482
" />
<path d="M108.2027 50.5482
L108.3841 50.5482
" />
<path d="M108.3841 50.5482
L108.5050 50.6086
" />
<path d="M108.5050 50.6086
L108.5655 50.6691
" />
<path d="M108.5655 50.6691
L108.6260 50.7901
" />
<path d="M108.6260 50.7901
L108.6260 51.1529
" />
<path d="M108.6260 51.1529
L108.5655 51.2739
" />
<path d="M108.5655 51.2739
L108.5050 51.3344
" />
<path d="M108.5050 51.3344
L108.3841 51.3948
" />
<path d="M108.3841 51.3948
L108.2027 51.3948
" />
<path d="M109.3517 51.3948
L109.2307 51.3344
" />
<path d="M109.2307 51.3344
L109.1702 51.2134
" />
<path d="M109.1702 51.2134
L109.1702 50.1248
" />
<path d="M110.3192 51.3344
L110.1983 51.3948
" />
<path d="M110.1983 51.3948
L109.9564 51.3948
" />
<path d="M109.9564 51.3948
L109.8354 51.3344
" />
<path d="M109.8354 51.3344
L109.7750 51.2134
" />
<path d="M109.7750 51.2134
L109.7750 50.7296
" />
<path d="M109.7750 50.7296
L109.8354 50.6086
" />
<path d="M109.8354 50.6086
L109.9564 50.5482
" />
<path d="M109.9564 50.5482
L110.1983 50.5482
" />
<path d="M110.1983 50.5482
L110.3192 50.6086
" />
<path d="M110.3192 50.6086
L110.3797 50.7296
" />
<path d="M110.3797 50.7296
L110.3797 50.8505
" />
<path d="M110.3797 50.8505
L109.7750 50.9715
" />
</g></g>
</g>
<g style="fill:#008484; fill-opacity:0.0; 
stroke:#008484; stroke-width:0.1588; stroke-opacity:1; 
stroke-linecap:round; stroke-linejoin:round;">
</g>
<g style="fill:#008484; fill-opacity:0.0; 
stroke:#008484; stroke-width:0.1524; stroke-opacity:1; 
stroke-linecap:round; stroke-linejoin:round;">
</g>
<g style="fill:#848400; fill-opacity:0.0; 
stroke:#848400; stroke-width:0.1524; stroke-opacity:1; 
stroke-linecap:round; stroke-linejoin:round;">
<text x="113.2205" y="122.5550"
textLength="3.9975" font-size="1.6933" lengthAdjust="spacingAndGlyphs"
text-anchor="start" opacity="0">GND</text>
<g class="stroked-text"><desc>GND</desc>
<path d="M114.1881 121.2980
L114.0671 121.2375
" />
<path d="M114.0671 121.2375
L113.8857 121.2375
" />
<path d="M113.8857 121.2375
L113.7043 121.2980
" />
<path d="M113.7043 121.2980
L113.5833 121.4190
" />
<path d="M113.5833 121.4190
L113.5228 121.5399
" />
<path d="M113.5228 121.5399
L113.4624 121.7818
" />
<path d="M113.4624 121.7818
L113.4624 121.9632
" />
<path d="M113.4624 121.9632
L113.5228 122.2051
" />
<path d="M113.5228 122.2051
L113.5833 122.3261
" />
<path d="M113.5833 122.3261
L113.7043 122.4471
" />
<path d="M113.7043 122.4471
L113.8857 122.5075
" />
<path d="M113.8857 122.5075
L114.0066 122.5075
" />
<path d="M114.0066 122.5075
L114.1881 122.4471
" />
<path d="M114.1881 122.4471
L114.2485 122.3866
" />
<path d="M114.2485 122.3866
L114.2485 121.9632
" />
<path d="M114.2485 121.9632
L114.0066 121.9632
" />
<path d="M114.7928 122.5075
L114.7928 121.2375
" />
<path d="M114.7928 121.2375
L115.5185 122.5075
" />
<path d="M115.5185 122.5075
L115.5185 121.2375
" />
<path d="M116.1233 122.5075
L116.1233 121.2375
" />
<path d="M116.1233 121.2375
L116.4257 121.2375
" />
<path d="M116.4257 121.2375
L116.6071 121.2980
" />
<path d="M116.6071 121.2980
L116.7281 121.4190
" />
<path d="M116.7281 121.4190
L116.7886 121.5399
" />
<path d="M116.7886 121.5399
L116.8490 121.7818
" />
<path d="M116.8490 121.7818
L116.8490 121.9632
" />
<path d="M116.8490 121.9632
L116.7886 122.2051
" />
<path d="M116.7886 122.2051
L116.7281 122.3261
" />
<path d="M116.7281 122.3261
L116.6071 122.4471
" />
<path d="M116.6071 122.4471
L116.4257 122.5075
" />
<path d="M116.4257 122.5075
L116.1233 122.5075
" />
</g><path style="fill:#848400; fill-opacity:0.0; 
stroke:#848400; stroke-width:0.1524; stroke-opacity:1; 
stroke-linecap:round; stroke-linejoin:round;fill:none"
d="M 111.7600,121.9200
112.3950,122.5550
113.0300,122.5550
113.0300,121.2850
112.3950,121.2850
Z" /> 
</g>
<g style="fill:#848400; fill-opacity:0.0; 
stroke:#848400; stroke-width:0.1588; stroke-opacity:1; 
stroke-linecap:round; stroke-linejoin:round;">
</g>
<g style="fill:#848400; fill-opacity:0.0; 
stroke:#848400; stroke-width:0.1524; stroke-opacity:1; 
stroke-linecap:round; stroke-linejoin:round;">
<text x="113.2205" y="120.0150"
textLength="5.2070" font-size="1.6933" lengthAdjust="spacingAndGlyphs"
text-anchor="start" opacity="0">+12V</text>
<g class="stroked-text"><desc>+12V</desc>
<path d="M113.5228 119.4837
L114.4905 119.4837
" />
<path d="M114.0066 119.9675
L114.0066 118.9999
" />
<path d="M115.7605 119.9675
L115.0348 119.9675
" />
<path d="M115.3976 119.9675
L115.3976 118.6975
" />
<path d="M115.3976 118.6975
L115.2767 118.8790
" />
<path d="M115.2767 118.8790
L115.1557 118.9999
" />
<path d="M115.1557 118.9999
L115.0348 119.0604
" />
<path d="M116.2443 118.8185
L116.3047 118.7580
" />
<path d="M116.3047 118.7580
L116.4257 118.6975
" />
<path d="M116.4257 118.6975
L116.7281 118.6975
" />
<path d="M116.7281 118.6975
L116.8490 118.7580
" />
<path d="M116.8490 118.7580
L116.9095 118.8185
" />
<path d="M116.9095 118.8185
L116.9700 118.9394
" />
<path d="M116.9700 118.9394
L116.9700 119.0604
" />
<path d="M116.9700 119.0604
L116.9095 119.2418
" />
<path d="M116.9095 119.2418
L116.1838 119.9675
" />
<path d="M116.1838 119.9675
L116.9700 119.9675
" />
<path d="M117.3328 118.6975
L117.7561 119.9675
" />
<path d="M117.7561 119.9675
L118.1795 118.6975
" />
</g><path style="fill:#848400; fill-opacity:0.0; 
stroke:#848400; stroke-width:0.1524; stroke-opacity:1; 
stroke-linecap:round; stroke-linejoin:round;fill:none"
d="M 111.7600,119.3800
112.3950,120.0150
113.0300,120.0150
113.0300,118.7450
112.3950,118.7450
Z" /> 
</g>
<g style="fill:#008400; fill-opacity:0.0; 
stroke:#008400; stroke-width:0.1524; stroke-opacity:1; 
stroke-linecap:round; stroke-linejoin:round;">
<path d="M104.1400 129.5400
L104.1400 119.3800
" />
<path d="M107.9500 132.0800
L101.6000 132.0800
" />
<path d="M107.9500 129.5400
L104.1400 129.5400
" />
<path d="M101.6000 132.0800
L101.6000 121.9200
" />
<path d="M104.1400 116.8400
L104.1400 119.3800
" />
<path d="M101.6000 116.8400
L101.6000 119.3800
" />
<path d="M101.6000 119.3800
L99.0600 119.3800
" />
<path d="M99.0600 121.9200
L101.6000 121.9200
" />
<path d="M101.6000 121.9200
L111.7600 121.9200
" />
<path d="M104.1400 119.3800
L111.7600 119.3800
" />
</g>
<g style="fill:#008400; fill-opacity:1.0000; 
stroke:#008400; stroke-width:0.1524; stroke-opacity:1; 
stroke-linecap:round; stroke-linejoin:round;">
<circle cx="101.6000" cy="121.9200" r="0.4572" /> 
<circle cx="104.1400" cy="119.3800" r="0.4572" /> 
</g> 
</svg>
